<svg width="35" height="35" viewBox="0 0 35 35" fill="none" xmlns="http://www.w3.org/2000/svg">
<path d="M29.5312 8.75H24.0625C24.0625 7.00952 23.3711 5.34032 22.1404 4.10961C20.9097 2.8789 19.2405 2.1875 17.5 2.1875C15.7595 2.1875 14.0903 2.8789 12.8596 4.10961C11.6289 5.34032 10.9375 7.00952 10.9375 8.75H5.46875C4.88859 8.75 4.33219 8.98047 3.92195 9.3907C3.51172 9.80094 3.28125 10.3573 3.28125 10.9375V27.3438C3.28125 27.9239 3.51172 28.4803 3.92195 28.8905C4.33219 29.3008 4.88859 29.5312 5.46875 29.5312H29.5312C30.1114 29.5312 30.6678 29.3008 31.078 28.8905C31.4883 28.4803 31.7188 27.9239 31.7188 27.3438V10.9375C31.7188 10.3573 31.4883 9.80094 31.078 9.3907C30.6678 8.98047 30.1114 8.75 29.5312 8.75ZM17.5 4.375C18.6603 4.375 19.7731 4.83594 20.5936 5.65641C21.4141 6.47688 21.875 7.58968 21.875 8.75H13.125C13.125 7.58968 13.5859 6.47688 14.4064 5.65641C15.2269 4.83594 16.3397 4.375 17.5 4.375ZM29.5312 27.3438H5.46875V10.9375H10.9375V13.125C10.9375 13.4151 11.0527 13.6933 11.2579 13.8984C11.463 14.1035 11.7412 14.2188 12.0312 14.2188C12.3213 14.2188 12.5995 14.1035 12.8046 13.8984C13.0098 13.6933 13.125 13.4151 13.125 13.125V10.9375H21.875V13.125C21.875 13.4151 21.9902 13.6933 22.1954 13.8984C22.4005 14.1035 22.6787 14.2188 22.9688 14.2188C23.2588 14.2188 23.537 14.1035 23.7421 13.8984C23.9473 13.6933 24.0625 13.4151 24.0625 13.125V10.9375H29.5312V27.3438Z" fill="black"/>
</svg>
